# xmcd
#
# Track frame offsets:
#	150
#	11893
#	27148
#	39019
#	51944
#	64977
#	81144
#	93381
#	104772
#	119697
#	132202
#	146586
#	158952
#	168830
#	177425
#	188234
#	201041
#	217176
#	229370
#
# Disc length: 3294 seconds
#
# Revision: 1
# Processed by: cddbd v1.4PL0 Copyright (c) Steve Scherf et al.
# Submitted via: audiograbber 1.82.02
#
DISCID=160cdc13
DTITLE=The Pine Valley Cosmonauts - Salute The Majesty of Bob Wills
DYEAR=1900
DGENRE=
TTITLE0=Home In San Antone
TTITLE1=Trouble In Mind
TTITLE2=Texas Playboy Rag
TTITLE3=Drunkard's Blues
TTITLE4=Across The Alley From The Alamo
TTITLE5=Sweet Kind Of Love
TTITLE6=Time Changes Everything
TTITLE7=Hang Your Head In Shame
TTITLE8=Steel Guitar Rag
TTITLE9=Brain Cloudy Blues
TTITLE10=Right Or Wrong
TTITLE11=Roly Poly
TTITLE12=Pan Handle Rag
TTITLE13=Bubbles In My Beer
TTITLE14=Stay A Little Longer
TTITLE15=My Window Faces The South
TTITLE16=San Antonio Rose
TTITLE17=Take Me Back To Tulsa
TTITLE18=Faded Love
EXTD=
EXTT0=vocals by Chris Mills
EXTT1=vocals by Jimmie Dale Gilmore
EXTT2=
EXTT3=vocals by Kelly Hogan
EXTT4=vocals by Robbie Fulks
EXTT5=vocals by Jon Langford
EXTT6=vocals by Jane Baxter-Miller
EXTT7=vocals by Bob Boyd
EXTT8=
EXTT9=vocals by Dean Schlabowsky
EXTT10=vocals by Sally Timms
EXTT11=vocals by Brett Sparks
EXTT12=
EXTT13=vocals by Tracey Dear
EXTT14=vocals by Neko Case and Bob Boyd
EXTT15=vocals by Edith Frost
EXTT16=vocals by Alejandro Escovedo and Jon Langford
EXTT17=vocals by The Meat Purveyors featuring Joan of Arkansas and Cherry Lou
EXTT18=vocals by Jane Baxter-Miller, Rico Bell, and Brendan Croker
PLAYORDER=
